
<svg width="19" height="18" viewBox="0 0 19 18" fill="none" xmlns="http://www.w3.org/2000/svg">
<path d="M17.4993 10.9998C17.8845 11 18.2549 11.1484 18.5336 11.4142C18.8124 11.6801 18.9783 12.043 18.9968 12.4277C19.0153 12.8125 18.8851 13.1896 18.6331 13.481C18.3811 13.7724 18.0267 13.9556 17.6433 13.9928L17.4993 13.9998H5.12026L6.56026 15.4398C6.83303 15.7116 6.99083 16.0779 7.00099 16.4628C7.01116 16.8477 6.8729 17.2218 6.61486 17.5076C6.35682 17.7934 5.99875 17.969 5.61479 17.9981C5.23084 18.0272 4.8504 17.9075 4.55226 17.6638L4.43826 17.5608L0.609259 13.7308C-0.364741 12.7568 0.269259 11.1138 1.60026 11.0058L1.74026 10.9998H17.4993ZM12.4393 0.439813C12.7016 0.17721 13.0521 0.0212212 13.4228 0.00201127C13.7935 -0.0171987 14.1582 0.101735 14.4463 0.335813L14.5603 0.438813L18.3893 4.26881C19.3633 5.24281 18.7293 6.88581 17.3983 6.99381L17.2583 6.99981H1.49926C1.11404 6.99962 0.743664 6.85124 0.464872 6.5854C0.18608 6.31957 0.0202468 5.95667 0.00173458 5.5719C-0.0167777 5.18713 0.113451 4.80998 0.365434 4.51861C0.617418 4.22724 0.97184 4.04398 1.35526 4.00681L1.49926 3.99981H13.8783L12.4383 2.55981C12.1574 2.27856 11.9996 1.89731 11.9996 1.49981C11.9996 1.10231 12.1584 0.721064 12.4393 0.439813Z" 
fill="white"/>
</svg>
