<svg
    width="18"
    height="18"
    viewBox="0 0 18 18"
    fill="none"
    xmlns="http://www.w3.org/2000/svg"
>
<path
    d="M2 18C1.45 18 0.979 17.8043 0.587 17.413C0.195667 17.021 0 16.55 0 16V2C0 1.45 0.195667 0.979 0.587 0.587C0.979 0.195667 1.45 0 2 0H6C6.55 0 7.021 0.195667 7.413 0.587C7.80433 0.979 8 1.45 8 2V16C8 16.55 7.80433 17.021 7.413 17.413C7.021 17.8043 6.55 18 6 18H2ZM12 7C11.45 7 10.9793 6.804 10.588 6.412C10.196 6.02067 10 5.55 10 5V2C10 1.45 10.196 0.979 10.588 0.587C10.9793 0.195667 11.45 0 12 0H16C16.55 0 17.021 0.195667 17.413 0.587C17.8043 0.979 18 1.45 18 2V5C18 5.55 17.8043 6.02067 17.413 6.412C17.021 6.804 16.55 7 16 7H12ZM12 18C11.45 18 10.9793 17.8043 10.588 17.413C10.196 17.021 10 16.55 10 16V11C10 10.45 10.196 9.979 10.588 9.587C10.9793 9.19567 11.45 9 12 9H16C16.55 9 17.021 9.19567 17.413 9.587C17.8043 9.979 18 10.45 18 11V16C18 16.55 17.8043 17.021 17.413 17.413C17.021 17.8043 16.55 18 16 18H12Z"
    fill="white"
/>
</svg>
