<svg width="18" height="19" viewBox="0 0 18 19" fill="none" xmlns="http://www.w3.org/2000/svg">
<path  d="M14.68 9.32C14.2622 8.90219 13.7661 8.57095 13.22 8.34526C12.674 8.11957 12.0888 8.00388 11.4979 8.00481C10.9071 8.00574 10.3222 8.12327 9.77689 8.35068C9.23155 8.57808 8.73646 8.91088 8.32 9.33C7.90154 9.74712 7.56952 10.2427 7.34297 10.7884C7.11643 11.3341 6.99981 11.9192 6.99981 12.51C6.99981 13.1008 7.11643 13.6859 7.34297 14.2316C7.56952 14.7773 7.90154 15.2729 8.32 15.69C9.04099 16.4084 9.98385 16.8616 10.9952 16.976C12.0065 17.0904 13.0268 16.8592 13.89 16.32L17 19.39L18.39 18L15.3 14.89C16.43 13.12 16.17 10.8 14.68 9.32ZM13.27 14.27C12.29 15.25 10.71 15.24 9.73 14.27C8.76 13.29 8.76 11.71 9.74 10.73C10.71 9.76 12.29 9.76 13.27 10.73C14.24 11.71 14.24 13.29 13.27 14.27ZM6.9 17.1C6.2474 16.4406 5.74285 15.6497 5.42 14.78C2.27 14.25 0 12.76 0 11V14C0 16.21 3.58 18 8 18C7.6 17.74 7.23 17.44 6.9 17.1ZM0 6V9C0 10.68 2.07 12.12 5 12.7V12.5C5 11.57 5.2 10.65 5.58 9.81C2.34 9.3 0 7.79 0 6ZM8 0C3.58 0 0 1.79 0 4C0 6 3 7.68 6.85 8H6.9C8.1 6.74 9.76 6 11.5 6C12.41 6 13.31 6.19 14.14 6.56C14.6445 6.3299 15.0808 5.97325 15.4068 5.52468C15.7327 5.07611 15.937 4.55088 16 4C16 1.79 12.42 0 8 0Z" fill="white"/>
</svg>
