<?xml version="1.0" standalone="no"?>
<svg  xmlns="http://www.w3.org/2000/svg">
  <path fill="#3BB8FF" d="M34.2,-56.5C46.3,-45.4,59.4,-39.3,63.8,-29.3C68.2,-19.2,63.9,-5.3,63.8,10.6C63.7,26.5,67.9,44.5,61.7,55.6C55.4,66.7,38.8,71,22.1,76.3C5.5,81.6,-11.1,88,-25.2,84.4C-39.2,80.9,-50.7,67.4,-59,53.5C-67.4,39.6,-72.7,25.4,-73.7,11.3C-74.6,-2.9,-71.2,-16.9,-63.9,-27.6C-56.6,-38.3,-45.3,-45.6,-34,-57.1C-22.7,-68.6,-11.3,-84.2,-0.2,-84C11,-83.7,22.1,-67.6,34.2,-56.5Z" transform="translate(100 100)" />
</svg>
